{
	"asset": {
		"generator": "Khronos glTF Blender I/O v3.4.50",
		"version": "2.0"
	},
	"scene": 0,
	"scenes": [
		{
			"name": "Scene",
			"nodes": [0, 1, 2]
		}
	],
	"nodes": [
		{
			"mesh": 0,
			"name": "BezierCircle",
			"translation": [
				-0.046372734010219574, 0.0159187912940979, -0.01622154749929905
			]
		},
		{
			"mesh": 1,
			"name": "BezierCircle.001",
			"translation": [
				-0.030307088047266006, -0.5295743346214294, -0.015298896469175816
			]
		},
		{
			"mesh": 2,
			"name": "BezierCircle.002",
			"rotation": [
				0.000837654632050544, 0.00966994371265173, -0.015900881960988045,
				0.9998264908790588
			],
			"translation": [
				-0.046372734010219574, -1.1148769855499268, -0.01622154749929905
			]
		}
	],
	"materials": [
		{
			"doubleSided": true,
			"name": "Material.001",
			"pbrMetallicRoughness": {
				"baseColorFactor": [0, 0.010985753498971462, 0.8000000715255737, 1],
				"metallicFactor": 0,
				"roughnessFactor": 0.5
			}
		},
		{
			"doubleSided": true,
			"name": "Material.002",
			"pbrMetallicRoughness": {
				"baseColorFactor": [0, 0.010985753498971462, 0.8000000715255737, 1],
				"metallicFactor": 0,
				"roughnessFactor": 0.5
			}
		},
		{
			"doubleSided": true,
			"emissiveFactor": [0, 1, 0.7683554291725159],
			"name": "Material.005",
			"pbrMetallicRoughness": {
				"baseColorFactor": [0, 0.8000000715255737, 0.36927732825279236, 1],
				"metallicFactor": 0,
				"roughnessFactor": 0.5
			}
		},
		{
			"doubleSided": true,
			"name": "Material.003",
			"pbrMetallicRoughness": {
				"baseColorFactor": [0, 0.010985753498971462, 0.8000000715255737, 1],
				"metallicFactor": 0,
				"roughnessFactor": 0.5
			}
		}
	],
	"meshes": [
		{
			"name": "BezierCircle",
			"primitives": [
				{
					"attributes": {
						"POSITION": 0,
						"TEXCOORD_0": 1,
						"NORMAL": 2
					},
					"indices": 3,
					"material": 0
				}
			]
		},
		{
			"name": "BezierCircle.001",
			"primitives": [
				{
					"attributes": {
						"POSITION": 4,
						"TEXCOORD_0": 5,
						"NORMAL": 6
					},
					"indices": 7,
					"material": 1
				},
				{
					"attributes": {
						"POSITION": 8,
						"TEXCOORD_0": 9,
						"NORMAL": 10
					},
					"indices": 11,
					"material": 2
				}
			]
		},
		{
			"name": "BezierCircle.002",
			"primitives": [
				{
					"attributes": {
						"POSITION": 12,
						"TEXCOORD_0": 13,
						"NORMAL": 14
					},
					"indices": 7,
					"material": 3
				}
			]
		}
	],
	"accessors": [
		{
			"bufferView": 0,
			"componentType": 5126,
			"count": 1175,
			"max": [1.6711950302124023, 0.7211169004440308, 1.9356950521469116],
			"min": [-2.0822415351867676, -0.6690959334373474, -5.18415641784668],
			"type": "VEC3"
		},
		{
			"bufferView": 1,
			"componentType": 5126,
			"count": 1175,
			"type": "VEC2"
		},
		{
			"bufferView": 2,
			"componentType": 5126,
			"count": 1175,
			"type": "VEC3"
		},
		{
			"bufferView": 3,
			"componentType": 5123,
			"count": 6474,
			"type": "SCALAR"
		},
		{
			"bufferView": 4,
			"componentType": 5126,
			"count": 1127,
			"max": [1.6711950302124023, 0.7211169004440308, 1.9356950521469116],
			"min": [-2.0822415351867676, -0.6690959334373474, -5.18415641784668],
			"type": "VEC3"
		},
		{
			"bufferView": 5,
			"componentType": 5126,
			"count": 1127,
			"type": "VEC2"
		},
		{
			"bufferView": 6,
			"componentType": 5126,
			"count": 1127,
			"type": "VEC3"
		},
		{
			"bufferView": 7,
			"componentType": 5123,
			"count": 6336,
			"type": "SCALAR"
		},
		{
			"bufferView": 8,
			"componentType": 5126,
			"count": 48,
			"max": [1.2718297243118286, 0.46926867961883545, 1.543759822845459],
			"min": [-1.607100486755371, -0.057987213134765625, -4.685743808746338],
			"type": "VEC3"
		},
		{
			"bufferView": 9,
			"componentType": 5126,
			"count": 48,
			"type": "VEC2"
		},
		{
			"bufferView": 10,
			"componentType": 5126,
			"count": 48,
			"type": "VEC3"
		},
		{
			"bufferView": 11,
			"componentType": 5123,
			"count": 138,
			"type": "SCALAR"
		},
		{
			"bufferView": 12,
			"componentType": 5126,
			"count": 1127,
			"max": [1.6711950302124023, 0.7211169004440308, 1.9356950521469116],
			"min": [-2.0822415351867676, -0.6690959334373474, -5.18415641784668],
			"type": "VEC3"
		},
		{
			"bufferView": 13,
			"componentType": 5126,
			"count": 1127,
			"type": "VEC2"
		},
		{
			"bufferView": 14,
			"componentType": 5126,
			"count": 1127,
			"type": "VEC3"
		}
	],
	"bufferViews": [
		{
			"buffer": 0,
			"byteLength": 14100,
			"byteOffset": 0,
			"target": 34962
		},
		{
			"buffer": 0,
			"byteLength": 9400,
			"byteOffset": 14100,
			"target": 34962
		},
		{
			"buffer": 0,
			"byteLength": 14100,
			"byteOffset": 23500,
			"target": 34962
		},
		{
			"buffer": 0,
			"byteLength": 12948,
			"byteOffset": 37600,
			"target": 34963
		},
		{
			"buffer": 0,
			"byteLength": 13524,
			"byteOffset": 50548,
			"target": 34962
		},
		{
			"buffer": 0,
			"byteLength": 9016,
			"byteOffset": 64072,
			"target": 34962
		},
		{
			"buffer": 0,
			"byteLength": 13524,
			"byteOffset": 73088,
			"target": 34962
		},
		{
			"buffer": 0,
			"byteLength": 12672,
			"byteOffset": 86612,
			"target": 34963
		},
		{
			"buffer": 0,
			"byteLength": 576,
			"byteOffset": 99284,
			"target": 34962
		},
		{
			"buffer": 0,
			"byteLength": 384,
			"byteOffset": 99860,
			"target": 34962
		},
		{
			"buffer": 0,
			"byteLength": 576,
			"byteOffset": 100244,
			"target": 34962
		},
		{
			"buffer": 0,
			"byteLength": 276,
			"byteOffset": 100820,
			"target": 34963
		},
		{
			"buffer": 0,
			"byteLength": 13524,
			"byteOffset": 101096,
			"target": 34962
		},
		{
			"buffer": 0,
			"byteLength": 9016,
			"byteOffset": 114620,
			"target": 34962
		},
		{
			"buffer": 0,
			"byteLength": 13524,
			"byteOffset": 123636,
			"target": 34962
		}
	],
	"buffers": [
		{
			"byteLength": 137160,
			"uri": "pool.bin"
		}
	]
}
